#N canvas 1516 -247 1366 685 12;
#X declare -lib Gem;
#X obj 90 47 gemhead;
#X obj 87 114 gemwin;
#X obj 91 18 declare -lib Gem;
#X obj 223 87 dimen 1280 720;
#X msg 150 64 dimen 1280 720;
#X msg 80 80 create \, 1;
#X msg 170 130 0 \, destroy;
#X obj 77 178 colorRGB;
#X obj 87 235 sphere;
#X obj 351 109 notein 1;
#X obj 167 96 / 50;
#X obj 174 198 scaleXYZ;
#X msg 31 207 draw line;
#X obj 14 184 loadbang;
#X obj 272 214 rotateXYZ;
#X floatatom 160 22 5 0 0 0 - - -;
#X obj 465 92 metro 200;
#X obj 407 189 tgl 15 0 empty empty empty 17 7 0 10 -262144 -1 -1 0
1;
#X obj 382 32 osc~ 20;
#X msg 110 -5;
#X obj 433 142 snapshot~;
#X obj 468 188 * 360;
#X obj 466 49 tgl 15 0 empty empty empty 17 7 0 10 -262144 -1 -1 0
1;
#X text 171 282 apart from the boilerplate for GEM .Key thing to notice
here are the snapshot \, metronomes and how those along with an osc
can create a signal to be passed to rotationin this case;
#X msg 160 -2;
#X msg 170 8;
#X obj 174 237 cube;
#X connect 0 0 7 0;
#X connect 4 0 1 0;
#X connect 5 0 1 0;
#X connect 6 0 1 0;
#X connect 7 0 11 0;
#X connect 9 0 7 1;
#X connect 9 0 10 0;
#X connect 9 0 14 3;
#X connect 9 0 14 2;
#X connect 9 0 14 1;
#X connect 10 0 7 3;
#X connect 10 0 7 2;
#X connect 10 0 11 0;
#X connect 10 0 11 1;
#X connect 10 0 11 2;
#X connect 10 0 7 1;
#X connect 11 0 14 0;
#X connect 12 0 8 0;
#X connect 12 0 26 0;
#X connect 13 0 12 0;
#X connect 14 0 8 0;
#X connect 16 0 14 2;
#X connect 16 0 20 0;
#X connect 18 0 20 0;
#X connect 20 0 14 2;
#X connect 20 0 21 0;
#X connect 21 0 14 1;
#X connect 22 0 16 0;
#X connect 24 0 15 0;
