#N canvas 396 86 610 553 12;
#X obj 25 25 inlet;
#X obj 25 50 unpack f f;
#X obj 25 85 mtof;
#X obj 25 110 osc~;
#X obj 25 470 *~;
#X obj 25 495 outlet~;
#X obj 166 430 vline~;
#X obj 166 81 sel 0;
#X obj 218 109 / 127;
#X msg 166 390 0 \$1;
#X obj 166 347 f 500;
#X obj 218 283 pack f f f f, f 21;
#X text 36 159 sine through distortion \, you can change this to another
synth process, f 15;
#X obj 266 162 f 20;
#X text 305 162 attack time of 20 ms;
#X text 413 239 percentage of amplitude to make sustain level, f 25
;
#X text 361 194 decay time;
#X obj 291 39 inlet;
#X obj 346 39 inlet;
#X obj 394 38 inlet;
#X obj 362 245 * 0.5;
#X obj 218 138 t a b b a, f 21;
#X obj 314 195 f 100;
#X obj 456 38 inlet;
#X obj 455 294 t a;
#X text 211 342 release time of 500 ms;
#X msg 218 390 \$1 \$2 \, \$4 \$3 \$2;
#X obj 25 135 expr~ tanh($v1*3);
#X connect 0 0 1 0;
#X connect 1 0 2 0;
#X connect 1 1 7 0;
#X connect 2 0 3 0;
#X connect 3 0 27 0;
#X connect 4 0 5 0;
#X connect 6 0 4 1;
#X connect 7 0 10 0;
#X connect 7 1 8 0;
#X connect 8 0 21 0;
#X connect 9 0 6 0;
#X connect 10 0 9 0;
#X connect 11 0 26 0;
#X connect 13 0 11 1;
#X connect 17 0 13 1;
#X connect 18 0 22 1;
#X connect 19 0 20 1;
#X connect 20 0 11 3;
#X connect 21 0 11 0;
#X connect 21 1 13 0;
#X connect 21 2 22 0;
#X connect 21 3 20 0;
#X connect 22 0 11 2;
#X connect 23 0 24 0;
#X connect 24 0 10 1;
#X connect 26 0 6 0;
#X connect 27 0 4 0;
